<?xml version="1.0" encoding="UTF-8" standalone="no"?> <!-- Created with Vectornator for iOS (http://vectornator.io/) --><!DOCTYPE svg PUBLIC "-//W3C//DTD SVG 1.1//EN" "http://www.w3.org/Graphics/SVG/1.1/DTD/svg11.dtd">
<svg width="100%" xmlns:xlink="http://www.w3.org/1999/xlink" style="fill-rule:nonzero;clip-rule:evenodd;stroke-linecap:round;stroke-linejoin:round;" xmlns:vectornator="http://vectornator.io" xmlns="http://www.w3.org/2000/svg" xml:space="preserve" viewBox="0 0 201 201" height="100%" version="1.1">
<metadata>
<vectornator:setting key="IsTimeLapseWatermarkDisabled" value="false"/>
<vectornator:setting value="true" key="VNDimensionsVisible"/>
<vectornator:setting value="Pixels" key="WDUnits"/>
<vectornator:setting value="false" key="WDSnapToEdges"/>
<vectornator:setting key="WDGuidesVisible" value="true"/>
<vectornator:setting key="UndoHistoryDisabled" value="true"/>
<vectornator:setting key="WDIsolateActiveLayer" value="false"/>
<vectornator:setting key="WDSnapToPoints" value="false"/>
<vectornator:setting key="WDDisplayWhiteBackground" value="false"/>
<vectornator:setting key="WDCMYKEnabledKey" value="false"/>
<vectornator:setting key="WDRulersVisible" value="true"/>
<vectornator:setting value="false" key="WDSnapToGrid"/>
<vectornator:setting key="WDOutlineMode" value="false"/>
<vectornator:setting key="VNSnapToGuides" value="true"/>
<vectornator:setting value="false" key="WDDynamicGuides"/>
</metadata>
<defs/>
<g vectornator:layerName="Layer 1" id="Layer 1">
<g opacity="0.1">
<path d="M189.245+106.082L186.752+104.542L190.308+102.583C193.307+100.928+194.505+97.2087+193.033+94.115C191.49+90.8733+189.112+88.3306+185.964+86.5579C183.02+84.9004+179.601+84.0603+175.804+84.0603C171.719+84.0603+167.984+84.9867+164.701+86.8159C164.431+86.9662+164.163+87.1242+163.896+87.2905C162.728+85.5148+160.717+84.3579+158.474+84.3579L149.685+84.3579C148.622+84.3579+147.572+84.6234+146.639+85.1179C144.76+84.4151+142.682+84.0603+140.45+84.0603C136.707+84.0603+133.221+85.0409+130.083+86.9761C129.211+86.3107+128.185+85.8765+127.093+85.717C127.147+85.3766+127.174+85.0317+127.174+84.6868C127.174+81.1101+124.266+78.2003+120.686+78.2003L111.897+78.2003C108.816+78.2003+106.141+80.3935+105.537+83.4147L105.047+85.8582C104.294+86.055+103.581+86.3862+102.944+86.8357C101.98+86.3671+100.988+85.9528+99.9817+85.5972C97.0941+84.5769+94.1363+84.0603+91.1907+84.0603C88.1856+84.0603+85.4216+84.6219+82.9758+85.7307C82.4447+85.9719+81.9288+86.2397+81.4305+86.5327C80.2202+85.1813+78.465+84.3579+76.5924+84.3579L67.8028+84.3579C66.7398+84.3579+65.6905+84.6234+64.7572+85.1179C62.8777+84.4151+60.8013+84.0603+58.5676+84.0603C56.6393+84.0603+54.7689+84.3258+52.9748+84.8539L53.1114+84.1618C53.4907+82.2502+52.9992+80.2897+51.763+78.7841C50.526+77.277+48.6983+76.4123+46.7493+76.4123L27.5975+76.4123C27.6021+77.1961+27.2617+77.9981+26.4299+78.6803C24.7228+80.0806+22.854+81.2688+20.9958+82.4669C21.6986+83.4025+21.8581+84.6631+20.9332+85.9444C19.507+87.9224+17.6183+89.441+15.2274+89.9942C14.7925+91.0878+13.8317+91.9402+12.3452+92.0081L7.46582+116.438C7.08427+118.351+7.57495+120.313+8.81196+121.821C10.049+123.33+11.8766+124.195+13.8271+124.195L22.9143+124.195C25.9904+124.195+28.6651+122.006+29.2733+118.99L30.756+111.632L38.5848+111.632C38.9091+112.907+39.3517+114.12+39.908+115.252C41.3221+118.135+43.3695+120.427+45.9923+122.066C48.622+123.709+51.5997+124.542+54.8429+124.542C56.6744+124.542+58.4478+124.282+60.1236+123.767C60.8616+124.048+61.6483+124.195+62.4404+124.195L71.2796+124.195C73.5475+124.195+75.5927+123.009+76.758+121.177C77.8385+121.774+78.9817+122.303+80.1759+122.756C83.3009+123.941+86.5899+124.542+89.9499+124.542C92.9634+124.542+95.7465+123.99+98.222+122.901C100.13+122.062+101.779+120.947+103.152+119.57C103.604+120.133+104.106+120.655+104.654+121.132C107.285+123.427+110.658+124.591+114.677+124.591C116.385+124.591+118.138+124.401+119.888+124.025C121.746+123.626+123.467+123.022+125.003+122.23C125.565+121.94+126.079+121.566+126.53+121.125C126.965+121.464+127.413+121.778+127.874+122.066C130.503+123.709+133.482+124.542+136.725+124.542C138.556+124.542+140.329+124.282+142.006+123.767C142.743+124.048+143.53+124.195+144.322+124.195L153.162+124.195C156.103+124.195+158.671+122.199+159.427+119.39C160.568+120.495+161.864+121.438+163.309+122.211C166.138+123.725+169.389+124.493+172.973+124.493C176.857+124.493+180.406+123.702+183.523+122.144C186.831+120.49+189.469+118.083+191.364+114.991C193.227+111.951+192.276+107.956+189.245+106.082" opacity="1" fill="#ffffff"/>
<path opacity="1" d="M103.535+103.048L103.565+102.898C103.543+102.929+103.519+102.959+103.496+102.989C103.51+103.008+103.521+103.029+103.535+103.048" fill="#0056b8"/>
<path fill="#231f20" d="M45.7477+90.6835L47.3999+82.3649L22.4827+82.3649C22.4431+83.914+21.5052+85.4204+19.6798+85.6722L13.1758+118.243L23.3512+118.243L25.8839+105.679L41.4774+105.679L43.1295+97.3608L27.5376+97.3608L28.8646+90.6835L45.7477+90.6835Z" opacity="1"/>
<path fill="#231f20" d="M22.456+81.8303C22.4949+82.1859+22.4965+82.5461+22.4392+82.8987L46.7489+82.8987L45.309+90.149L28.4259+90.149L26.8867+97.8953L42.4786+97.8953L41.0393+105.146L25.4467+105.146L22.9147+117.709L13.8268+117.709L20.2506+85.5436C19.9164+85.6504+19.5577+85.7252+19.1487+85.7252C19.1403+85.7252+19.1334+85.7229+19.125+85.7229L12.7798+117.499L12.5241+118.776L23.7892+118.776L23.9616+117.919L26.3212+106.213L41.9162+106.213L42.0871+105.353L43.5271+98.1029L43.7804+96.8262L28.1885+96.8262L29.3034+91.2173L46.1865+91.2173L46.3575+90.3573L47.7975+83.107L48.0508+81.8303L22.456+81.8303Z" opacity="1"/>
<path fill="#231f20" d="M61.6959+110.21C62.7551+109.515+63.59+108.572+64.2035+107.38C64.8156+106.188+65.1216+104.881+65.1216+103.456C65.1216+101.768+64.6667+100.42+63.7564+99.4104C62.846+98.4001+61.6288+97.8949+60.1064+97.8949C58.8816+97.8949+57.7476+98.2513+56.7052+98.9632C55.6628+99.6752+54.8348+100.626+54.222+101.818C53.6092+103.01+53.304+104.301+53.304+105.692C53.304+107.38+53.7588+108.73+54.6692+109.738C55.5788+110.749+56.78+111.253+58.2696+111.253C59.4936+111.253+60.6352+110.905+61.6959+110.21M49.4304+116.566C47.8416+115.573+46.6085+114.183+45.7309+112.395C44.8541+110.608+44.4153+108.555+44.4153+106.238C44.4153+103.325+45.0357+100.676+46.2773+98.2925C47.5188+95.9093+49.2229+94.0221+51.3916+92.6317C53.5596+91.2421+55.952+90.5461+58.5672+90.5461C62.6056+90.5461+65.3864+92.1349+66.9095+95.3133L67.8031+90.8445L76.5927+90.8445L71.2799+117.708L62.4407+117.708L63.0856+114.53C60.7352+116.881+57.988+118.056+54.8432+118.056C52.8232+118.056+51.02+117.56+49.4304+116.566" opacity="1"/>
<path fill="#231f20" d="M82.0433+116.69C79.6425+115.781+77.6157+114.53+75.9605+112.941L79.6357+107.677C81.026+108.936+82.5652+109.945+84.2532+110.707C85.9413+111.469+87.5133+111.849+88.9708+111.849C89.8972+111.849+90.6168+111.675+91.1304+111.327C91.6432+110.98+91.9004+110.492+91.9004+109.863C91.9004+109.333+91.5852+108.879+90.9572+108.497C90.3276+108.117+89.3348+107.661+87.9772+107.132C86.3884+106.503+85.0644+105.907+84.0045+105.344C82.9453+104.781+82.0349+103.995+81.2741+102.985C80.5117+101.976+80.1317+100.743+80.1317+99.2854C80.1317+97.5654+80.5789+96.0414+81.4725+94.7174C82.3668+93.3942+83.616+92.367+85.2216+91.639C86.8272+90.911+88.6732+90.5463+90.758+90.5463C92.9756+90.5463+95.1856+90.9354+97.3872+91.7138C99.5888+92.4914+101.566+93.559+103.322+94.9158L99.4483+100.179C97.9252+99.1206+96.4104+98.2766+94.9048+97.647C93.3976+97.019+92.1148+96.7038+91.0564+96.7038C90.3276+96.7038+89.7156+96.877+89.2188+97.225C88.7228+97.5722+88.474+98.0118+88.474+98.5414C88.474+99.071+88.7976+99.5342+89.4424+99.931C90.088+100.329+91.0892+100.793+92.4468+101.321C94.0684+101.985+95.4168+102.605+96.4943+103.184C97.5696+103.763+98.4967+104.559+99.2744+105.567C100.052+106.578+100.441+107.827+100.441+109.317C100.441+111.038+99.9772+112.561+99.0508+113.885C98.1236+115.209+96.8332+116.236+95.178+116.963C93.522+117.692+91.6348+118.056+89.5172+118.056C86.9348+118.056+84.444+117.601+82.0433+116.69" opacity="1"/>
<path fill="#231f20" d="M116.136+108.472C116.069+108.738+116.036+109.086+116.036+109.515C116.036+110.078+116.16+110.467+116.409+110.682C116.658+110.898+117.045+110.988+117.576+110.955C118.568+110.955+119.81+110.607+121.3+109.912L122.243+116.467C121.216+116.997+120.05+117.403+118.742+117.683C117.434+117.964+116.152+118.106+114.894+118.106C112.477+118.106+110.556+117.485+109.134+116.244C107.71+115.002+106.999+113.306+106.999+111.154C106.999+110.459+107.064+109.796+107.197+109.167L109.432+97.9954L105.757+97.9954L106.899+92.1354L110.624+92.1354L112.113+84.6867L120.903+84.6867L119.413+92.1354L126.364+92.1354L125.223+97.9954L118.221+97.9954L116.136+108.472Z" opacity="1"/>
<path d="M144.011+110.21C145.07+109.515+145.905+108.572+146.518+107.38C147.13+106.188+147.436+104.881+147.436+103.456C147.436+101.768+146.982+100.42+146.071+99.4104C145.161+98.4001+143.944+97.8949+142.421+97.8949C141.196+97.8949+140.062+98.2513+139.02+98.9632C137.978+99.6752+137.15+100.626+136.537+101.818C135.924+103.01+135.619+104.301+135.619+105.692C135.619+107.38+136.074+108.73+136.984+109.738C137.894+110.749+139.095+111.253+140.584+111.253C141.808+111.253+142.95+110.905+144.011+110.21M131.745+116.566C130.156+115.573+128.923+114.183+128.046+112.395C127.169+110.608+126.73+108.555+126.73+106.238C126.73+103.325+127.35+100.676+128.592+98.2925C129.834+95.9093+131.538+94.0221+133.706+92.6317C135.874+91.2421+138.267+90.5461+140.882+90.5461C144.92+90.5461+147.701+92.1349+149.224+95.3133L150.118+90.8445L158.907+90.8445L153.595+117.708L144.756+117.708L145.4+114.53C143.05+116.881+140.303+118.056+137.158+118.056C135.138+118.056+133.335+117.56+131.745+116.566" opacity="1" fill="#231f20"/>
<path fill="#231f20" opacity="1" d="M166.369+116.492C164.482+115.483+163.025+114.051+161.999+112.197C160.973+110.342+160.46+108.208+160.46+105.791C160.46+102.811+161.113+100.172+162.421+97.8708C163.729+95.5701+165.541+93.7737+167.859+92.4825C170.175+91.1921+172.824+90.5465+175.803+90.5465C178.485+90.5465+180.811+91.1013+182.781+92.2101C184.75+93.3196+186.215+94.884+187.175+96.9025L180.422+100.626C179.926+99.7328+179.255+99.046+178.41+98.566C177.567+98.086+176.581+97.8457+175.456+97.8457C173.701+97.8457+172.245+98.5248+171.087+99.8816C169.927+101.24+169.348+102.994+169.348+105.146C169.348+106.867+169.787+108.248+170.665+109.292C171.541+110.335+172.708+110.855+174.165+110.855C176.615+110.855+178.468+109.846+179.727+107.827L185.834+111.601C184.575+113.654+182.838+115.235+180.621+116.343C178.403+117.452+175.854+118.006+172.973+118.006C170.457+118.006+168.256+117.502+166.369+116.492"/>
<path d="M188.241+107.705C190.387+109.031+191.056+111.843+189.739+113.993C188.032+116.778+185.653+118.945+182.669+120.438C179.82+121.863+176.558+122.585+172.974+122.585C169.707+122.585+166.758+121.893+164.21+120.529C161.752+119.215+159.793+117.36+158.36+115.025L157.654+118.596C157.229+120.742+155.348+122.287+153.161+122.287L144.323+122.287C143.541+122.287+142.784+122.088+142.115+121.719C140.423+122.328+138.623+122.634+136.724+122.634C133.845+122.634+131.208+121.9+128.886+120.449C127.901+119.833+127.013+119.105+126.216+118.284C125.804+119.231+125.088+120.039+124.127+120.535C122.744+121.249+121.182+121.796+119.487+122.159C117.867+122.507+116.249+122.684+114.678+122.684C111.132+122.684+108.183+121.679+105.908+119.695C104.813+118.739+103.964+117.604+103.347+116.335C103.309+116.393+103.274+116.453+103.234+116.511C101.824+118.526+99.8791+120.089+97.4547+121.154C95.2218+122.137+92.6967+122.634+89.9503+122.634C86.8215+122.634+83.7599+122.075+80.8532+120.972C79.0164+120.275+77.333+119.399+75.819+118.356L75.7716+118.596C75.3474+120.742+73.4663+122.287+71.28+122.287L62.4408+122.287C61.6594+122.287+60.9016+122.088+60.2332+121.719C58.5406+122.328+56.7411+122.634+54.8433+122.634C51.9625+122.634+49.326+121.9+47.0038+120.449C44.687+119.001+42.8762+116.97+41.6208+114.412C40.9111+112.966+40.4159+111.396+40.1297+109.725L29.1951+109.725L27.4033+118.613C26.9721+120.75+25.0949+122.287+22.9147+122.287L13.8275+122.287C12.4554+122.287+11.1566+121.673+10.2867+120.612C9.41749+119.55+9.06875+118.156+9.33737+116.812L13.9351+93.7861C14.029+93.8113+14.1083+93.8441+14.2053+93.867C15.4888+94.1738+17.083+94.2631+18.9625+93.8335C20.5101+93.4809+22.25+92.775+24.1707+91.5441C24.6881+91.2137+25.2162+90.8497+25.7595+90.4384C26.8096+89.644+27.6116+88.7862+28.2183+87.8964C29.2462+86.3893+29.7056+84.7898+29.8163+83.2376C29.9353+81.5672+29.653+79.9555+29.2432+78.5796C29.2157+78.4888+29.1844+78.4087+29.1562+78.3201L46.749+78.3201C48.1195+78.3201+49.4183+78.9344+50.2883+79.9944C51.1582+81.0528+51.507+82.4463+51.2406+83.7909L50.4195+87.9247C52.9309+86.6312+55.6613+85.9681+58.568+85.9681C60.9406+85.9681+63.0872+86.4107+64.9507+87.2631C65.739+86.635+66.7349+86.2657+67.8032+86.2657L76.5966+86.2657C78.5509+86.2657+80.2137+87.492+80.87+89.2159C81.7377+88.5382+82.6999+87.9506+83.7637+87.4683C85.9615+86.4725+88.4599+85.9681+91.1911+85.9681C93.9177+85.9681+96.6611+86.448+99.3465+87.3966C100.704+87.8766+102+88.4573+103.231+89.1289C104.072+88.1658+105.303+87.5645+106.653+87.5569L107.407+83.7886C107.835+81.6481+109.715+80.1081+111.897+80.1081L120.69+80.1081C123.219+80.1081+125.267+82.1578+125.267+84.6868C125.267+85.05+125.224+85.4026+125.144+85.7414L124.782+87.5569L126.149+87.5569C127.516+87.5569+128.812+88.1673+129.682+89.2235C129.739+89.2929+129.788+89.3677+129.84+89.4394C130.153+89.2105+130.474+88.9885+130.802+88.7771C133.709+86.9128+136.956+85.9681+140.449+85.9681C142.822+85.9681+144.968+86.4107+146.832+87.2631C147.621+86.635+148.617+86.2657+149.686+86.2657L158.478+86.2657C160.804+86.2657+162.72+88.0025+163.011+90.2491C163.827+89.5982+164.695+89.0037+165.63+88.4833C168.626+86.8136+172.048+85.9681+175.804+85.9681C179.268+85.9681+182.372+86.7251+185.028+88.2208C187.826+89.7966+189.94+92.0562+191.31+94.9354C192.351+97.1225+191.508+99.7415+189.387+100.912L182.972+104.449L188.241+107.705ZM190.527+104.64L191.229+104.253C195.111+102.112+196.66+97.2987+194.755+93.2955C193.041+89.6928+190.398+86.8662+186.901+84.8959C183.665+83.0751+179.933+82.1525+175.804+82.1525C171.622+82.1525+167.768+83.0575+164.338+84.8455C162.815+83.3582+160.737+82.4501+158.478+82.4501L149.686+82.4501C148.604+82.4501+147.533+82.6622+146.538+83.0644C144.654+82.4585+142.615+82.1525+140.449+82.1525C136.761+82.1525+133.298+83.0224+130.133+84.7433C129.791+84.5586+129.436+84.3983+129.072+84.2633C128.851+79.8311+125.175+76.2926+120.69+76.2926L111.897+76.2926C107.909+76.2926+104.447+79.1313+103.666+83.0415L103.391+84.4144C103.201+84.496+103.013+84.5838+102.83+84.6792C102.104+84.3571+101.365+84.0633+100.618+83.7985C97.5226+82.7057+94.3511+82.1525+91.1911+82.1525C87.9128+82.1525+84.8847+82.7714+82.1887+83.9931C82.0322+84.0649+81.8765+84.1373+81.7224+84.2129C80.2801+83.098+78.4837+82.4501+76.5966+82.4501L67.8032+82.4501C66.7211+82.4501+65.6512+82.6622+64.6561+83.0644C62.7728+82.4585+60.733+82.1525+58.568+82.1525C57.4028+82.1525+56.2558+82.241+55.1317+82.4173C55.0325+80.6606+54.3816+78.9665+53.2377+77.5731C51.6359+75.6225+49.2718+74.5046+46.749+74.5046L27.4369+74.5046C27.4361+74.5046+27.4338+74.5+27.4338+74.5L10.424+91.9104L5.59583+116.064C5.10134+118.539+5.73548+121.079+7.33649+123.031C8.9375+124.983+11.3031+126.102+13.8275+126.102L22.9147+126.102C26.8958+126.102+30.3573+123.27+31.1433+119.366L32.3177+113.54L37.1559+113.54C37.4474+114.424+37.7946+115.276+38.1952+116.093C39.7688+119.299+42.052+121.853+44.9816+123.684C47.9196+125.52+51.2376+126.45+54.8433+126.45C56.6488+126.45+58.4055+126.22+60.0836+125.764C60.8475+125.987+61.6419+126.102+62.4408+126.102L71.28+126.102C73.5937+126.102+75.7289+125.148+77.2673+123.584C77.9908+123.931+78.7356+124.25+79.5002+124.54C82.8404+125.807+86.3568+126.45+89.9503+126.45C93.2294+126.45+96.2711+125.844+98.9909+124.647C100.478+123.993+101.827+123.187+103.028+122.234C103.151+122.348+103.274+122.461+103.401+122.571C106.389+125.178+110.183+126.5+114.678+126.5C116.519+126.5+118.406+126.294+120.289+125.89C122.313+125.456+124.194+124.795+125.878+123.925C126.123+123.799+126.361+123.66+126.591+123.511C126.681+123.569+126.772+123.627+126.864+123.684C129.802+125.52+133.12+126.45+136.724+126.45C138.531+126.45+140.287+126.22+141.965+125.764C142.729+125.987+143.524+126.102+144.323+126.102L153.161+126.102C155.996+126.102+158.562+124.671+160.092+122.439C160.821+122.972+161.594+123.457+162.409+123.893C165.517+125.557+169.072+126.401+172.974+126.401C177.156+126.401+180.993+125.542+184.376+123.85C188.006+122.034+190.905+119.389+192.991+115.988C195.344+112.15+194.228+107.133+190.527+104.64" opacity="1" fill="#231f20"/>
</g>
</g>
</svg>
